<svg width="224" height="241" viewBox="0 0 224 241" fill="none" xmlns="http://www.w3.org/2000/svg">
<path d="M83.1159 234C78.6613 233.722 72.1511 224.347 83.1159 225.117C94.0806 225.886 108.329 219.395 120.591 213.114C122.526 212.123 125.288 211.404 126.769 210.582L130.841 218.465L134.767 225.319C101.079 240.353 87.5705 234.279 83.1159 234Z" fill="#FAD1B0"/>
<path d="M120.591 213.114C122.526 212.123 125.288 211.404 126.769 210.582L130.841 218.465M120.591 213.114C108.329 219.395 94.0806 225.886 83.1159 225.117C72.1511 224.347 78.6613 233.722 83.1159 234C87.5705 234.279 101.079 240.353 134.767 225.319L130.841 218.465M120.591 213.114C115.479 216.785 104.867 221.882 101.593 224.446C97.863 227.368 100.591 230.05 111.387 226.812C117.039 225.117 126.999 220.836 130.841 218.465" stroke="#323139" stroke-width="2"/>
<path d="M80.6046 211.732L79.6475 209.711L85.6029 207.478L86.3473 209.711L80.6046 211.732Z" fill="white" stroke="#323139" stroke-width="2"/>
<path d="M77.179 210.427L71.3286 200.447L84.9221 196.145L86.987 206.986L77.179 210.427Z" fill="#22B5BF" stroke="#323139" stroke-width="2"/>
<path d="M76.8805 164.241C81.2761 170.976 90.3885 184.614 89.9631 187.166C89.4314 190.356 88.6589 196.006 89.616 198.133C90.1418 199.038 90.878 201.074 89.616 201.968C88.0386 203.085 82.8466 202.582 82.4022 202.772C76.7263 205.217 69.2695 207.686 66.0353 208.116C62.7017 208.56 61.037 200.353 61.356 199.077C61.6751 197.801 57.8466 195.355 58.272 192.59C58.6974 189.825 53.061 185.89 56.0387 182.912C58.4209 180.53 60.5762 176.035 61.356 174.085L76.8805 164.241Z" fill="#FAD1B0"/>
<path d="M89.616 198.133C88.6589 196.006 89.4314 190.356 89.9631 187.166C90.3885 184.614 81.2761 170.976 76.8805 164.241L61.356 174.085C60.5762 176.035 58.4209 180.53 56.0387 182.912C53.061 185.89 58.6974 189.825 58.272 192.59M89.616 198.133C90.1418 199.038 90.878 201.074 89.616 201.968C88.0386 203.085 82.8466 202.582 82.4022 202.772M89.616 198.133C90.0304 199.053 86.7353 200.906 82.4022 202.772M61.356 199.077C61.037 200.353 62.7017 208.56 66.0353 208.116C69.2695 207.686 76.7263 205.217 82.4022 202.772M61.356 199.077C61.6751 197.801 57.8466 195.355 58.272 192.59M61.356 199.077L63.1402 198.133M58.272 192.59L60.0835 191.74" stroke="#323139" stroke-width="2"/>
<path d="M139.295 80.0734C138.144 84.9139 129.937 88.5344 125.977 89.7396L124.218 101.661L157.927 108.615C167.167 102.691 185.265 90.3709 178.579 90.3709C172.047 90.3709 164.857 80.0263 163.505 73.8769C155.231 73.3894 140.447 75.2329 139.295 80.0734Z" fill="#FAD1B0" stroke="#323139" stroke-width="2"/>
<path d="M134.678 22.5448C136.094 20.1173 137.459 8.38427 137.965 2.82119L145.725 6.30882C146.923 5.14628 148.538 2.82119 148.538 2.82119L152.014 8.76748C153.864 5.18576 158.956 2.78557 161.04 2.82119C159.582 7.6824 161.04 10.9973 161.04 10.9973C165.416 4.58972 172.918 7.09023 172.918 7.40279C172.918 7.71535 170.937 19.2738 170.937 19.2738C175.892 13.3043 188.367 11.8852 187.139 12.7164C186.045 13.4572 182.817 17.7057 184.326 24.7501C185.733 31.3139 179.638 59.9134 178.231 63.8205C177.659 65.411 154.164 82.1055 147.287 82.1055C140.411 82.1055 140.411 77.7296 131.972 68.9778C123.533 60.226 132.908 25.5792 134.678 22.5448Z" fill="#FAD1B0" stroke="#323139" stroke-width="2"/>
<path d="M139.38 30.2526L150.084 30.859" stroke="#323139" stroke-width="2"/>
<path d="M173.624 33.0634C167.893 32.0486 158.948 30.4724 156.508 35.6898C154.163 40.7044 150.986 46.9942 149.476 49.5988H156.508" stroke="#323139" stroke-width="2"/>
<path d="M144.731 61.0008C153.328 62.6126 164.67 57.9564 164.67 57.9564C164.67 57.9564 153.626 69.1791 144.731 61.0008Z" fill="#323139" stroke="#323139"/>
<path d="M155.492 95.7867H143.812L142.678 102.59L154.358 103.384L155.492 95.7867Z" fill="#22B5BF" stroke="black"/>
<path d="M213.51 97.4652C204.017 91.5735 183.915 89.8278 175.05 89.6914C156.285 100.549 154.244 109.394 125.953 89.6914C125.953 89.6914 113.956 85.5401 102.871 89.0076C78.8677 95.4175 30.2128 108.512 23.6665 115.058C17.1202 121.605 26.0978 131.288 28.8254 136.743L61.3553 174.085L77.7326 164.727L52.3066 136.743C61.4442 139.334 81.3559 139.198 96.4942 136.743C96.4942 136.743 96.4942 172.748 94.0393 194.842H160.416L125.953 210.758L131.802 226.525C161.806 216.16 217.027 189.829 219.645 186.883C222.919 183.201 225.375 104.83 213.51 97.4652Z" fill="#F2B4BF"/>
<path d="M187.324 176.43C188.143 166.338 188.797 145.253 184.869 141.653M187.324 176.43L160.416 194.842M187.324 176.43C189.512 175.359 196.902 174.782 198.921 171.306M187.324 176.43C190.281 177.083 190.756 178.11 193.704 180.378M52.3066 136.743L77.7326 164.727L61.3553 174.085L28.8254 136.743C26.0978 131.288 17.1202 121.605 23.6665 115.058C30.2128 108.512 78.8677 95.4175 102.871 89.0076C113.957 85.5401 125.953 89.6914 125.953 89.6914C154.244 109.394 156.285 100.549 175.05 89.6914C183.915 89.8278 204.017 91.5735 213.51 97.4652C225.375 104.83 222.919 183.201 219.645 186.883C217.027 189.829 161.806 216.16 131.802 226.525L125.953 210.758L160.416 194.842M52.3066 136.743C61.4442 139.334 81.3559 139.198 96.4942 136.743C96.4942 136.743 96.4942 172.748 94.0393 194.842H160.416M52.3066 136.743C48.7747 134.581 45.1534 130.599 44.8241 129.277M52.3066 136.743C51.0583 136.743 48.1308 136.743 46.4073 136.743M52.3066 136.743C52.9427 133.881 54.6074 127.833 56.1773 126.544" stroke="#323139" stroke-width="2"/>
<ellipse cx="144.254" cy="36.8242" rx="1.49237" ry="2.92506" transform="rotate(7.89423 144.254 36.8242)" fill="#323139"/>
<ellipse cx="164.67" cy="39.4575" rx="1.68617" ry="3.30491" transform="rotate(7.89423 164.67 39.4575)" fill="#323139"/>
<path d="M126.068 89.704C127.772 87.77 130.205 86.3751 130.205 86.3751L149.142 95.5599L172.841 86.375L175.676 91.1376L152.884 102.704C151.069 100.776 151.296 98.9616 149.142 95.5599C149.142 97.6463 146.382 101.116 145.626 102.704L126.068 89.704Z" fill="#22B5BF"/>
<path d="M149.142 95.5599L130.205 86.3751C130.205 86.3751 127.772 87.77 126.068 89.704L145.626 102.704C146.382 101.116 149.142 97.6463 149.142 95.5599ZM149.142 95.5599L172.841 86.375L175.676 91.1376L152.884 102.704C151.069 100.776 151.296 98.9616 149.142 95.5599Z" stroke="#323139" stroke-width="2"/>
<path d="M180.89 35.7737C185.503 35.5959 190.424 40.8178 179.282 50.1561L180.89 35.7737Z" fill="#FAD1B0"/>
<path d="M180.89 35.9556C185.503 35.7778 190.424 40.9997 179.282 50.338" stroke="#323139" stroke-width="2"/>
<path d="M85.8542 217.672C85.8542 218.755 84.9763 219.633 83.8934 219.633C82.8105 219.633 81.9326 218.755 81.9326 217.672C81.9326 217.516 82.0199 217.19 82.2808 216.692C82.5253 216.226 82.8627 215.72 83.2174 215.24C83.4503 214.924 83.6843 214.629 83.8934 214.375C84.1025 214.629 84.3364 214.924 84.5694 215.24C84.9241 215.72 85.2615 216.226 85.506 216.692C85.7669 217.19 85.8542 217.516 85.8542 217.672Z" fill="#22B5BF" stroke="#323139" stroke-width="2"/>
<path d="M15.1168 128.774C15.1168 128.774 12.9963 120.351 15.1168 115.712C17.2704 111 25.7705 107.239 25.7705 107.239" stroke="#323139" stroke-width="2"/>
<path d="M102.752 239.396C110.73 239.075 120.68 234.92 120.68 234.92" stroke="#323139" stroke-width="2"/>
<path d="M100.986 239.396L97.7202 239.396" stroke="#323139" stroke-width="2"/>
<path d="M28.4878 106.105L35.5739 103.487" stroke="#323139" stroke-width="2"/>
<path d="M187.366 23.1027C187.366 23.1027 186.748 20.5539 187.366 19.2045C187.991 17.8414 188.969 15.6962 188.969 15.6962" stroke="#323139" stroke-width="2"/>
<path d="M187.799 28.1703C187.799 26.1346 188.276 26.4378 187.799 24.8785" stroke="#323139" stroke-width="2"/>
</svg>
