<svg width="408" height="436" viewBox="0 0 408 436" fill="none" xmlns="http://www.w3.org/2000/svg">
<path d="M151.667 424.663C143.525 424.154 131.625 407.018 151.667 408.424C171.71 409.831 197.756 397.965 220.169 386.485C223.707 384.673 228.756 383.359 231.462 381.856L238.907 396.265L246.083 408.794C184.503 436.275 159.81 425.172 151.667 424.663Z" fill="#FAD1B0"/>
<path d="M220.169 386.485C223.707 384.673 228.756 383.359 231.462 381.856L238.907 396.265M220.169 386.485C197.756 397.965 171.71 409.831 151.667 408.424C131.625 407.018 143.525 424.154 151.667 424.663C159.81 425.172 184.503 436.275 246.083 408.794L238.907 396.265M220.169 386.485C210.826 393.194 191.427 402.511 185.443 407.198C178.624 412.54 183.611 417.442 203.344 411.523C213.677 408.424 231.883 400.599 238.907 396.265" stroke="#323139" stroke-width="2"/>
<path d="M147.077 383.958L145.327 380.264L156.213 376.182L157.574 380.264L147.077 383.958Z" fill="white" stroke="#323139" stroke-width="2"/>
<path d="M140.816 381.573L130.122 363.33L154.97 355.467L158.745 375.282L140.816 381.573Z" fill="#22B5BF" stroke="#323139" stroke-width="2"/>
<path d="M140.269 297.148C148.304 309.459 164.961 334.388 164.183 339.053C163.211 344.885 161.799 355.211 163.549 359.099C164.51 360.755 165.855 364.476 163.549 366.109C160.665 368.152 151.175 367.233 150.362 367.58C139.987 372.049 126.356 376.562 120.445 377.349C114.351 378.159 111.308 363.158 111.891 360.825C112.474 358.492 105.476 354.021 106.254 348.967C107.031 343.913 96.7285 336.72 102.172 331.277C106.526 326.923 110.466 318.707 111.891 315.143L140.269 297.148Z" fill="#FAD1B0"/>
<path d="M163.549 359.099C161.799 355.211 163.211 344.885 164.183 339.053C164.961 334.388 148.304 309.459 140.269 297.148L111.891 315.143C110.466 318.707 106.526 326.923 102.172 331.277C96.7285 336.72 107.031 343.913 106.254 348.967M163.549 359.099C164.51 360.755 165.855 364.476 163.549 366.109C160.665 368.152 151.175 367.233 150.362 367.58M163.549 359.099C164.306 360.783 158.283 364.169 150.362 367.58M111.891 360.825C111.308 363.158 114.351 378.159 120.445 377.349C126.356 376.562 139.987 372.049 150.362 367.58M111.891 360.825C112.474 358.492 105.476 354.021 106.254 348.967M111.891 360.825L115.153 359.099M106.254 348.967L109.565 347.414" stroke="#323139" stroke-width="2"/>
<path d="M254.359 143.295C252.255 152.143 237.252 158.761 230.013 160.964L226.798 182.755L288.416 195.467C305.307 184.638 338.387 162.118 326.166 162.118C314.227 162.118 301.084 143.209 298.613 131.968C283.488 131.077 256.463 134.447 254.359 143.295Z" fill="#FAD1B0" stroke="#323139" stroke-width="2"/>
<path d="M245.92 38.1367C248.508 33.6994 251.004 12.2522 251.929 2.08323L266.112 8.45838C268.303 6.33333 271.255 2.08323 271.255 2.08323L277.609 12.9526C280.991 6.40551 290.299 2.01813 294.108 2.08323C291.442 10.9692 294.108 17.0286 294.108 17.0286C302.107 5.31599 315.819 9.88675 315.819 10.4581C315.819 11.0294 312.199 32.1576 312.199 32.1576C321.256 21.2457 344.06 18.6516 341.816 20.171C339.815 21.5252 333.914 29.2912 336.674 42.1677C339.245 54.166 328.103 106.444 325.532 113.586C324.486 116.493 281.539 147.01 268.969 147.01C256.4 147.01 256.4 139.011 240.973 123.013C225.547 107.015 242.684 43.6834 245.92 38.1367Z" fill="#FAD1B0" stroke="#323139" stroke-width="2"/>
<path d="M254.513 52.2261L274.078 53.3344" stroke="#323139" stroke-width="2"/>
<path d="M317.109 57.364C306.634 55.509 290.283 52.6278 285.823 62.1648C281.536 71.3313 275.729 82.8284 272.968 87.5896H285.823" stroke="#323139" stroke-width="2"/>
<path d="M264.296 108.432C280.009 111.378 300.742 102.867 300.742 102.867C300.742 102.867 280.555 123.381 264.296 108.432Z" fill="#323139" stroke="#323139"/>
<path d="M283.965 172.018H262.616L260.543 184.454L281.892 185.905L283.965 172.018Z" fill="#22B5BF" stroke="black"/>
<path d="M390.019 175.086C372.668 164.316 335.922 161.125 319.717 160.876C285.416 180.723 281.685 196.891 229.971 160.876C229.971 160.876 208.043 153.288 187.779 159.626C143.903 171.343 54.9647 195.279 42.9985 207.245C31.0323 219.211 47.4429 236.912 52.4288 246.883L111.891 315.143L141.828 298.036L95.3508 246.883C112.054 251.62 148.451 251.371 176.123 246.883C176.123 246.883 176.123 312.698 171.635 353.084H292.967L229.971 382.179L240.663 410.999C295.508 392.053 396.448 343.921 401.235 338.536C407.218 331.805 411.708 188.548 390.019 175.086Z" fill="#F2B4BF"/>
<path d="M342.154 319.429C343.65 300.981 344.846 262.439 337.667 255.858M342.154 319.429L292.967 353.084M342.154 319.429C346.153 317.471 359.662 316.416 363.351 310.063M342.154 319.429C347.559 320.622 348.427 322.499 353.817 326.645M95.3508 246.883L141.828 298.036L111.891 315.143L52.4288 246.883C47.4429 236.912 31.0323 219.211 42.9985 207.245C54.9647 195.279 143.903 171.343 187.779 159.626C208.043 153.288 229.971 160.876 229.971 160.876C281.685 196.891 285.416 180.723 319.717 160.876C335.922 161.125 372.668 164.316 390.019 175.086C411.708 188.548 407.218 331.805 401.235 338.536C396.448 343.921 295.508 392.053 240.663 410.999L229.971 382.179L292.967 353.084M95.3508 246.883C112.054 251.62 148.451 251.371 176.123 246.883C176.123 246.883 176.123 312.698 171.635 353.084H292.967M95.3508 246.883C88.8947 242.931 82.2753 235.652 81.6733 233.236M95.3508 246.883C93.069 246.883 87.7178 246.883 84.5672 246.883M95.3508 246.883C96.5136 241.651 99.5565 230.597 102.426 228.24" stroke="#323139" stroke-width="2"/>
<ellipse cx="263.423" cy="64.2385" rx="2.72796" ry="5.34682" transform="rotate(7.89423 263.423 64.2385)" fill="#323139"/>
<ellipse cx="300.742" cy="69.052" rx="3.08221" ry="6.04116" transform="rotate(7.89423 300.742 69.052)" fill="#323139"/>
<path d="M230.182 160.899C233.296 157.364 237.743 154.814 237.743 154.814L272.358 171.603L315.678 154.814L320.86 163.52L279.198 184.662C275.882 181.138 276.296 177.822 272.358 171.603C272.358 175.417 267.314 181.76 265.933 184.662L230.182 160.899Z" fill="#22B5BF"/>
<path d="M272.358 171.603L237.743 154.814C237.743 154.814 233.296 157.364 230.182 160.899L265.933 184.662C267.314 181.76 272.358 175.417 272.358 171.603ZM272.358 171.603L315.678 154.814L320.86 163.52L279.198 184.662C275.882 181.138 276.296 177.822 272.358 171.603Z" stroke="#323139" stroke-width="2"/>
<path d="M330.391 62.3183C338.823 61.9932 347.818 71.5385 327.451 88.6082L330.391 62.3183Z" fill="#FAD1B0"/>
<path d="M330.391 62.6507C338.823 62.3257 347.818 71.871 327.451 88.9407" stroke="#323139" stroke-width="2"/>
<path d="M157.501 394.816C157.501 397.252 155.526 399.228 153.089 399.228C150.652 399.228 148.677 397.252 148.677 394.816C148.677 394.321 148.917 393.576 149.408 392.641C149.882 391.737 150.526 390.773 151.187 389.878C151.846 388.987 152.506 388.184 153.003 387.602C153.032 387.568 153.061 387.535 153.089 387.502C153.117 387.535 153.145 387.568 153.174 387.602C153.672 388.184 154.332 388.987 154.991 389.878C155.652 390.773 156.295 391.737 156.77 392.641C157.26 393.576 157.501 394.321 157.501 394.816Z" fill="#22B5BF" stroke="#323139" stroke-width="2"/>
<path d="M27.3692 232.317C27.3692 232.317 23.4931 216.921 27.3692 208.44C31.306 199.827 46.8435 192.953 46.8435 192.953" stroke="#323139" stroke-width="2"/>
<path d="M187.562 434.527C202.143 433.94 220.332 426.343 220.332 426.343" stroke="#323139" stroke-width="2"/>
<path d="M184.332 434.527L178.362 434.527" stroke="#323139" stroke-width="2"/>
<path d="M51.8105 190.88L64.7635 186.094" stroke="#323139" stroke-width="2"/>
<path d="M342.229 39.1564C342.229 39.1564 341.098 34.4974 342.229 32.0309C343.372 29.5391 345.159 25.6178 345.159 25.6178" stroke="#323139" stroke-width="2"/>
<path d="M343.021 48.4197C343.021 44.6985 343.892 45.2528 343.021 42.4025" stroke="#323139" stroke-width="2"/>
</svg>
