<svg width="110" height="52" viewBox="0 0 110 52" fill="none" xmlns="http://www.w3.org/2000/svg">
<path d="M35.8079 44.808C34.6423 44.808 33.5119 44.6543 32.4166 44.3469C31.3353 44.0255 30.4647 43.6133 29.8047 43.1103L30.9632 40.5533C31.5951 41.0144 32.3464 41.3847 33.217 41.6642C34.0877 41.9436 34.9583 42.0833 35.8289 42.0833C36.7979 42.0833 37.514 41.9436 37.9775 41.6642C38.4409 41.3707 38.6726 40.9865 38.6726 40.5114C38.6726 40.1621 38.5321 39.8757 38.2513 39.6521C37.9845 39.4146 37.6334 39.2259 37.1981 39.0862C36.7768 38.9465 36.2011 38.7928 35.4709 38.6251C34.3475 38.3596 33.4277 38.0942 32.7115 37.8287C31.9953 37.5632 31.3775 37.137 30.8579 36.5502C30.3523 35.9633 30.0996 35.1809 30.0996 34.2028C30.0996 33.3505 30.3313 32.582 30.7947 31.8973C31.2581 31.1987 31.9532 30.6468 32.88 30.2416C33.8209 29.8364 34.9653 29.6338 36.3134 29.6338C37.2543 29.6338 38.174 29.7455 39.0728 29.9691C39.9715 30.1927 40.7579 30.514 41.4319 30.9332L40.3787 33.5112C39.0166 32.7427 37.6545 32.3584 36.2923 32.3584C35.3375 32.3584 34.6283 32.5121 34.1649 32.8195C33.7155 33.1269 33.4909 33.5321 33.4909 34.0351C33.4909 34.5381 33.7506 34.9154 34.2702 35.1669C34.8038 35.4044 35.6113 35.642 36.6926 35.8795C37.816 36.145 38.7358 36.4105 39.4519 36.676C40.1681 36.9414 40.7789 37.3606 41.2845 37.9335C41.804 38.5064 42.0638 39.2818 42.0638 40.2599C42.0638 41.0983 41.8251 41.8668 41.3477 42.5654C40.8843 43.2501 40.1821 43.795 39.2413 44.2002C38.3004 44.6054 37.156 44.808 35.8079 44.808Z" fill="#323139"/>
<path d="M55.8121 41.8319V44.5565H44.3955V29.8853H55.5383V32.6099H47.7868V35.7957H54.6325V38.4365H47.7868V41.8319H55.8121Z" fill="#323139"/>
<path d="M64.9092 29.8853C66.2152 29.8853 67.3456 30.1019 68.3005 30.535C69.2694 30.9682 70.0137 31.583 70.5332 32.3794C71.0528 33.1758 71.3126 34.119 71.3126 35.2088C71.3126 36.2847 71.0528 37.2279 70.5332 38.0383C70.0137 38.8347 69.2694 39.4495 68.3005 39.8827C67.3456 40.3019 66.2152 40.5114 64.9092 40.5114H61.9392V44.5565H58.5269V29.8853H64.9092ZM64.7196 37.7449C65.7447 37.7449 66.5241 37.5283 67.0577 37.0951C67.5913 36.648 67.8581 36.0193 67.8581 35.2088C67.8581 34.3845 67.5913 33.7557 67.0577 33.3225C66.5241 32.8754 65.7447 32.6519 64.7196 32.6519H61.9392V37.7449H64.7196Z" fill="#323139"/>
<path d="M76.3916 32.6519H71.6733V29.8853H84.5223V32.6519H79.804V44.5565H76.3916V32.6519Z" fill="#323139"/>
<path d="M38.0193 22.9175C36.5168 22.9175 35.1546 22.5961 33.9329 21.9534C32.7253 21.2967 31.7704 20.3955 31.0683 19.2497C30.3802 18.09 30.0361 16.7835 30.0361 15.3304C30.0361 13.8772 30.3802 12.5778 31.0683 11.432C31.7704 10.2723 32.7253 9.37106 33.9329 8.72832C35.1546 8.07161 36.5238 7.74326 38.0404 7.74326C39.3183 7.74326 40.4698 7.96682 41.4949 8.41394C42.534 8.86106 43.4046 9.5038 44.1068 10.3422L41.9161 12.3542C40.9191 11.2085 39.6834 10.6356 38.2089 10.6356C37.2961 10.6356 36.4817 10.8382 35.7655 11.2434C35.0493 11.6346 34.4876 12.1865 34.0804 12.8991C33.6872 13.6117 33.4906 14.4222 33.4906 15.3304C33.4906 16.2386 33.6872 17.049 34.0804 17.7616C34.4876 18.4742 35.0493 19.0331 35.7655 19.4383C36.4817 19.8296 37.2961 20.0252 38.2089 20.0252C39.6834 20.0252 40.9191 19.4453 41.9161 18.2856L44.1068 20.2976C43.4046 21.15 42.534 21.7997 41.4949 22.2468C40.4557 22.6939 39.2972 22.9175 38.0193 22.9175Z" fill="#22B5BF"/>
<path d="M46.4111 7.99477H49.8235V19.8994H57.2169V22.666H46.4111V7.99477Z" fill="#22B5BF"/>
<path d="M70.5401 19.9413V22.666H59.1235V7.99477H70.2663V10.7194H62.5148V13.9052H69.3606V16.546H62.5148V19.9413H70.5401Z" fill="#22B5BF"/>
<path d="M82.9657 19.5222H76.1199L74.814 22.666H71.3174L77.8893 7.99477H81.2595L87.8525 22.666H84.2716L82.9657 19.5222ZM81.8914 16.9442L79.5533 11.3272L77.2153 16.9442H81.8914Z" fill="#22B5BF"/>
<path d="M102.905 7.99477V22.666H100.104L92.7525 13.7585V22.666H89.3823V7.99477H92.2049L99.5351 16.9023V7.99477H102.905Z" fill="#22B5BF"/>
<path fill-rule="evenodd" clip-rule="evenodd" d="M19.1487 9.14674V7.98236H11.0205V9.14674H12.6565V13.3223H14.6699V9.14674H19.1487Z" fill="#323139"/>
<path fill-rule="evenodd" clip-rule="evenodd" d="M16.3057 13.2644H11.0203V15.0903H7.09473V22.666H20.2313V15.0903H16.3057V13.2644ZM7.09473 29.8159H20.2313V44.5565H7.09473V29.8159Z" fill="#22B5BF"/>
</svg>
